HIERARCHY
ROOT Hips
{
	OFFSET -1.602300 6.242603 43.997101
	CHANNELS 6 Xposition Yposition Zposition Zrotation Xrotation Yrotation
	JOINT Chest
	{
		OFFSET -0.204900 1.598101 7.917301
		CHANNELS 6 Xposition Yposition Zposition Zrotation Xrotation Yrotation
		JOINT Chest2
		{
			OFFSET 0.000000 0.000000 3.404099
			CHANNELS 6 Xposition Yposition Zposition Zrotation Xrotation Yrotation
			JOINT Neck
			{
				OFFSET 0.000000 0.000000 7.928600
				CHANNELS 6 Xposition Yposition Zposition Zrotation Xrotation Yrotation
				JOINT Head
				{
					OFFSET 0.000000 0.000000 2.173897
					CHANNELS 6 Xposition Yposition Zposition Zrotation Xrotation Yrotation
					End Site
					{
						OFFSET 0.000000 0.000001 10.404503
					}
				}
			}
			JOINT LeftCollar
			{
				OFFSET 2.833800 -1.396299 4.843300
				CHANNELS 6 Xposition Yposition Zposition Zrotation Xrotation Yrotation
				JOINT LeftShoulder
				{
					OFFSET 4.363600 0.000000 0.000000
					CHANNELS 6 Xposition Yposition Zposition Zrotation Xrotation Yrotation
					JOINT LeftElbow
					{
						OFFSET 0.000000 -0.000001 -10.306900
						CHANNELS 6 Xposition Yposition Zposition Zrotation Xrotation Yrotation
						JOINT LeftWrist
						{
							OFFSET 0.000000 -0.000001 -12.404900
							CHANNELS 6 Xposition Yposition Zposition Zrotation Xrotation Yrotation
							End Site
							{
								OFFSET 0.000000 0.000000 -2.173901
							}
						}
					}
				}
			}
			JOINT RightCollar
			{
				OFFSET -2.354800 -1.897200 5.063099
				CHANNELS 6 Xposition Yposition Zposition Zrotation Xrotation Yrotation
				JOINT RightShoulder
				{
					OFFSET -4.375800 0.000000 0.000000
					CHANNELS 6 Xposition Yposition Zposition Zrotation Xrotation Yrotation
					JOINT RightElbow
					{
						OFFSET 0.000000 -0.000001 -10.005001
						CHANNELS 6 Xposition Yposition Zposition Zrotation Xrotation Yrotation
						JOINT RightWrist
						{
							OFFSET 0.000000 -0.000001 -13.174900
							CHANNELS 6 Xposition Yposition Zposition Zrotation Xrotation Yrotation
							End Site
							{
								OFFSET 0.000000 0.000000 -2.173901
							}
						}
					}
				}
			}
		}
	}
	JOINT LeftHip
	{
		OFFSET 2.240600 0.386800 -2.614101
		CHANNELS 6 Xposition Yposition Zposition Zrotation Xrotation Yrotation
		JOINT LeftKnee
		{
			OFFSET 0.000000 -0.000001 -18.592899
			CHANNELS 6 Xposition Yposition Zposition Zrotation Xrotation Yrotation
			JOINT LeftAnkle
			{
				OFFSET 0.000000 -0.000001 -18.765800
				CHANNELS 6 Xposition Yposition Zposition Zrotation Xrotation Yrotation
				End Site
				{
					OFFSET 0.000000 -8.655000 0.000000
				}
			}
		}
	}
	JOINT RightHip
	{
		OFFSET -2.014900 -0.220900 -2.615898
		CHANNELS 6 Xposition Yposition Zposition Zrotation Xrotation Yrotation
		JOINT RightKnee
		{
			OFFSET 0.000000 -0.000001 -18.633900
			CHANNELS 6 Xposition Yposition Zposition Zrotation Xrotation Yrotation
			JOINT RightAnkle
			{
				OFFSET 0.000000 -0.000001 -18.285101
				CHANNELS 6 Xposition Yposition Zposition Zrotation Xrotation Yrotation
				End Site
				{
					OFFSET 0.000000 -7.524500 0.000000
				}
			}
		}
	}
}
MOTION
Frames: 7
Frame Time: 0.041667
-5.915200 26.049807 7.508507 4.335216 -3.434785 0.770742 -0.204901 1.598103 7.917305 -4.165259 3.860259 -1.705619 -0.000001 0.000003 3.404094 3.982462 -11.656432 -0.556204 0.000001 -0.000001 7.928596 -0.675769 13.567388 1.592381 -0.000001 0.000001 2.173898 -0.610540 -1.954305 -0.728247 2.833802 -1.396303 4.843303 0.107440 9.220282 10.765051 4.363594 0.000006 0.000001 -43.255100 16.046992 -60.215064 0.000002 0.000003 -10.306906 582.561478 -140.673347 596.153609 0.000006 -0.000000 -12.404901 2.324210 361.550709 -339.835161 -2.354803 -1.897203 5.063104 7.891275 5.483447 -12.637569 -4.375793 0.000007 0.000004 37.860896 5.852924 59.939261 -0.000004 0.000005 -10.005003 -588.675536 -157.280665 -620.814472 -0.000003 -0.000000 -13.174896 49.565180 -34.277407 346.350314 2.240597 0.386805 -2.614103 137.627137 -29.881948 102.213801 -0.000001 -0.000003 -18.592896 -200.367670 56.359470 205.435015 -0.000004 -0.000002 -18.765797 -33.701379 9.735052 84.427142 -2.014897 -0.220896 -2.615901 -116.666748 -24.120125 -93.818686 0.000000 0.000004 -18.633884 170.420146 27.359687 -178.663023 -0.000006 -0.000005 -18.285084 -15.793769 33.489620 -207.005193
-5.915900 26.049002 7.511509 4.341720 -3.420367 0.796279 -0.204900 1.598102 7.917304 -4.171689 3.788637 -1.718781 0.000000 0.000004 3.404107 3.983905 -11.657037 -0.555770 -0.000000 -0.000002 7.928601 -0.551851 13.500853 1.484413 -0.000001 -0.000002 2.173903 -0.652486 -2.011095 -0.755691 2.833802 -1.396300 4.843310 0.098896 9.228724 10.721540 4.363598 0.000003 -0.000003 -43.359967 15.951263 -60.302156 0.000003 -0.000000 -10.306902 582.508585 -140.541524 596.219616 0.000004 -0.000001 -12.404895 2.333281 361.545381 -339.974961 -2.354805 -1.897200 5.063110 7.943331 5.511671 -12.563215 -4.375797 0.000007 0.000004 38.160462 6.111634 60.054773 -0.000008 0.000006 -10.005006 -588.830772 -157.335661 -620.765513 -0.000005 -0.000001 -13.174900 48.994849 -34.574366 345.145059 2.240597 0.386804 -2.614101 137.643980 -29.846260 102.262426 -0.000001 -0.000002 -18.592894 -194.752039 57.449063 200.422913 -0.000003 0.000001 -18.765797 -30.463863 9.534557 84.320085 -2.014897 -0.220898 -2.615898 -116.666215 -24.137453 -93.816808 0.000000 0.000004 -18.633884 170.389792 27.371056 -178.658843 -0.000005 -0.000003 -18.285084 -15.775386 33.493537 -207.019304
-5.916500 26.048103 7.513615 4.350456 -3.395432 0.822658 -0.204900 1.598099 7.917309 -4.179874 3.701999 -1.738280 0.000000 0.000002 3.404104 3.988511 -11.645829 -0.553207 -0.000000 -0.000001 7.928603 -0.438561 13.426017 1.377775 -0.000000 -0.000000 2.173901 -0.695755 -2.063832 -0.808702 2.833801 -1.396302 4.843306 0.089177 9.266524 10.679280 4.363593 0.000006 -0.000001 -43.508121 15.852794 -60.419252 0.000005 0.000001 -10.306905 582.516344 -140.447650 596.370645 0.000005 -0.000001 -12.404896 2.358195 361.528415 -340.121236 -2.354802 -1.897202 5.063108 8.046902 5.580316 -12.509528 -4.375799 0.000010 0.000003 38.368478 6.302721 60.202940 -0.000009 0.000008 -10.005005 -588.925794 -157.310690 -620.711582 -0.000004 -0.000000 -13.174896 48.337409 -34.556816 345.063397 2.240597 0.386802 -2.614098 137.661056 -29.810941 102.316200 -0.000001 0.000002 -18.592890 -194.796940 57.460674 200.434920 -0.000003 0.000001 -18.765795 -30.484514 9.664479 84.074656 -2.014893 -0.220896 -2.615895 -116.671994 -24.142127 -93.826937 0.000000 0.000003 -18.633886 170.368673 27.379744 -178.659253 -0.000006 -0.000006 -18.285084 -15.757935 33.495398 -207.034345
-5.917000 26.047201 7.515003 4.363515 -3.360896 0.846563 -0.204900 1.598101 7.917309 -4.192523 3.602236 -1.758521 -0.000000 -0.000001 3.404101 3.999652 -11.621844 -0.547911 -0.000000 -0.000002 7.928601 -0.353632 13.344229 1.284048 0.000000 0.000000 2.173908 -0.732221 -2.102023 -0.883646 2.833802 -1.396303 4.843306 0.074415 9.320637 10.632575 4.363599 0.000004 0.000001 -43.664983 15.749895 -60.540222 0.000003 0.000007 -10.306899 582.584318 -140.326892 596.552930 0.000005 -0.000001 -12.404891 2.340660 361.505684 -340.272484 -2.354805 -1.897202 5.063104 8.188083 5.668867 -12.456195 -4.375795 0.000006 -0.000000 38.481781 6.386672 60.381249 -0.000008 0.000006 -10.005003 -588.950437 -157.333189 -620.672076 -0.000008 0.000000 -13.174895 47.217381 -34.501157 344.673994 2.240598 0.386802 -2.614098 137.675454 -29.770650 102.371039 -0.000002 0.000000 -18.592890 -194.834725 57.468392 200.443321 -0.000003 0.000001 -18.765795 -30.502477 9.763522 83.889189 -2.014897 -0.220897 -2.615894 -116.686774 -24.139478 -93.848083 0.000001 0.000004 -18.633884 170.353633 27.386245 -178.662586 -0.000004 -0.000005 -18.285086 -15.742030 33.496098 -207.049726
-5.917500 26.046206 7.515804 4.380905 -3.316951 0.868196 -0.204900 1.598102 7.917308 -4.209713 3.490804 -1.777516 -0.000001 -0.000001 3.404098 4.018604 -11.587729 -0.540037 -0.000001 0.000001 7.928602 -0.291838 13.267163 1.192604 -0.000000 0.000001 2.173899 -0.775199 -2.102480 -0.991872 2.833802 -1.396298 4.843306 -0.841019 9.463316 10.553867 4.363595 0.000005 -0.000002 -42.953332 15.351714 -60.716161 0.000003 0.000008 -10.306900 582.759171 -140.201422 596.824279 0.000005 -0.000001 -12.404897 2.261808 361.492762 -340.426655 -2.354804 -1.897196 5.063105 8.352620 5.764229 -12.397512 -4.375796 0.000007 0.000002 38.508910 6.359379 60.586319 -0.000011 0.000006 -10.005011 -588.842411 -157.255598 -620.658033 -0.000008 -0.000000 -13.174896 46.531282 -34.455306 344.611102 2.240596 0.386804 -2.614103 137.687570 -29.727736 102.426405 -0.000001 0.000000 -18.592892 -194.854423 57.468829 200.437516 -0.000003 -0.000000 -18.765795 -30.505947 9.799383 83.826133 -2.014894 -0.220893 -2.615900 -116.709901 -24.129708 -93.879454 0.000000 0.000001 -18.633884 170.343279 27.391579 -178.667763 -0.000005 -0.000007 -18.285082 -15.728194 33.495934 -207.064466
-5.918301 26.045206 7.516502 4.399679 -3.265142 0.889987 -0.204900 1.598100 7.917304 -4.228798 3.320751 -1.799210 0.000000 -0.000000 3.404103 4.044303 -11.495198 -0.533295 0.000000 -0.000001 7.928598 -0.282351 13.164645 1.147663 -0.000001 0.000001 2.173900 -0.795066 -2.085812 -1.137999 2.833801 -1.396302 4.843305 -0.942635 9.539586 10.510641 4.363589 0.000005 0.000002 -43.069308 15.205560 -60.912296 0.000002 0.000004 -10.306906 582.903753 -140.083888 597.087597 0.000003 -0.000002 -12.404892 2.182798 361.456288 -340.616042 -2.354803 -1.897202 5.063105 8.515749 5.847252 -12.332033 -4.375794 0.000006 0.000003 38.519115 6.312198 60.813423 -0.000007 0.000008 -10.005004 -588.687994 -157.119008 -620.677103 -0.000004 -0.000001 -13.174895 45.779456 -34.667800 343.607583 2.240598 0.386804 -2.614106 137.701067 -29.686666 102.483881 -0.000000 0.000003 -18.592890 -194.848017 57.459322 200.407695 -0.000004 0.000000 -18.765795 -30.483250 9.741037 83.950408 -2.014896 -0.220897 -2.615897 -116.737850 -24.110435 -93.917218 0.000000 0.000003 -18.633884 170.335028 27.396591 -178.671875 -0.000006 -0.000007 -18.285086 -15.718149 33.495637 -207.076296
-5.919200 26.044006 7.517208 4.422576 -3.211505 0.909841 -0.204899 1.598101 7.917307 -4.250873 3.269024 -1.818447 0.000000 0.000000 3.404100 4.077953 -11.516363 -0.517267 0.000000 0.000001 7.928599 -0.307461 13.048049 1.135555 -0.000001 0.000002 2.173897 -0.801948 -2.065302 -1.264107 2.833802 -1.396298 4.843305 -1.066487 9.617191 10.465260 4.363594 0.000005 0.000003 -43.123772 15.069902 -61.103173 0.000002 0.000004 -10.306905 583.044728 -139.874665 597.363591 0.000007 -0.000001 -12.404895 1.594961 361.529590 -340.130006 -2.354803 -1.897199 5.063101 8.658960 5.908076 -12.269608 -4.375796 0.000006 0.000004 38.541661 6.278320 61.045731 -0.000004 0.000003 -10.005006 -588.536910 -156.944032 -620.724204 -0.000003 -0.000001 -13.174894 44.967141 -34.738407 343.147283 2.240597 0.386802 -2.614101 137.711517 -29.645278 102.537839 0.000000 0.000001 -18.592890 -194.823728 57.441474 200.358518 -0.000003 0.000001 -18.765797 -30.441805 9.615528 84.209867 -2.014896 -0.220895 -2.615900 -116.771113 -24.088271 -93.955693 0.000001 0.000003 -18.633884 170.327241 27.401351 -178.674730 -0.000006 -0.000007 -18.285086 -15.711414 33.495558 -207.085516
